<svg width="32" height="32" viewBox="0 0 32 32" fill="none" xmlns="http://www.w3.org/2000/svg">
<g clip-path="url(#clip0_1_139)">
<path d="M11.1098 7.51381C11.0178 7.79675 11.1083 8.1 11.3402 8.28644L13.4049 9.94594L12.71 12.5021C12.632 12.7891 12.737 13.0876 12.9778 13.2627C13.2187 13.4375 13.5349 13.4452 13.7838 13.2823L16.0002 11.8315L18.2165 13.2824C18.332 13.3585 18.4673 13.3992 18.6057 13.3994C18.7555 13.3992 18.9015 13.3513 19.0224 13.2627C19.2633 13.0878 19.3685 12.7891 19.2903 12.5021L18.5953 9.946L20.6599 8.28656C20.892 8.10019 20.9825 7.79688 20.8905 7.51381C20.7985 7.23069 20.547 7.0385 20.2498 7.02413L17.604 6.89512L16.6638 4.41875C16.5582 4.14056 16.2977 3.96075 16.0001 3.96075C15.7025 3.96075 15.442 4.1405 15.3365 4.41869L14.3962 6.89519L11.7505 7.02413C11.4532 7.0385 11.2017 7.23069 11.1098 7.51381ZM14.6345 7.88469C14.7725 7.87799 14.9055 7.83118 15.0172 7.74999C15.1289 7.6688 15.2145 7.55676 15.2635 7.42763L16 5.48794L16.7365 7.42781C16.7856 7.55689 16.8712 7.66885 16.9829 7.75C17.0947 7.83115 17.2276 7.87795 17.3655 7.88469L19.4378 7.98575L17.8206 9.28556C17.7129 9.37208 17.6329 9.48813 17.5902 9.61949C17.5475 9.75084 17.5441 9.89179 17.5803 10.0251L18.1247 12.0272L16.3887 10.8907C16.2731 10.8151 16.138 10.7749 15.9999 10.7749C15.8618 10.7749 15.7266 10.8152 15.6111 10.8908L13.8752 12.0272L14.4195 10.0252C14.4558 9.89189 14.4524 9.75091 14.4097 9.61952C14.367 9.48814 14.2869 9.37207 14.1792 9.28556L12.562 7.98581L14.6345 7.88469ZM15.5 2.33488V0.5C15.5 0.367392 15.5527 0.240215 15.6465 0.146447C15.7402 0.0526784 15.8674 0 16 0C16.1326 0 16.2598 0.0526784 16.3536 0.146447C16.4473 0.240215 16.5 0.367392 16.5 0.5V2.33488C16.5 2.46748 16.4473 2.59466 16.3536 2.68843C16.2598 2.7822 16.1326 2.83488 16 2.83488C15.8674 2.83488 15.7402 2.7822 15.6465 2.68843C15.5527 2.59466 15.5 2.46748 15.5 2.33488ZM18.545 5.29725C18.4562 5.1987 18.4103 5.06895 18.4172 4.93652C18.4242 4.8041 18.4834 4.67986 18.582 4.59113L20.6267 2.75C20.6754 2.70606 20.7324 2.67216 20.7943 2.65024C20.8562 2.62832 20.9218 2.6188 20.9874 2.62223C21.053 2.62567 21.1172 2.64198 21.1765 2.67025C21.2357 2.69851 21.2889 2.73817 21.3328 2.78697C21.3767 2.83576 21.4106 2.89273 21.4326 2.95463C21.4545 3.01652 21.464 3.08213 21.4606 3.1477C21.4571 3.21328 21.4408 3.27753 21.4126 3.3368C21.3843 3.39607 21.3446 3.44919 21.2958 3.49312L19.2511 5.33425C19.1594 5.41706 19.0402 5.46283 18.9167 5.46269C18.8465 5.46279 18.7772 5.4481 18.7132 5.4196C18.6491 5.39109 18.5918 5.3494 18.545 5.29725ZM10.6672 2.787C10.7112 2.7382 10.7643 2.69853 10.8235 2.67026C10.8828 2.64198 10.9471 2.62567 11.0126 2.62223C11.0782 2.61879 11.1438 2.62831 11.2057 2.65023C11.2676 2.67215 11.3246 2.70606 11.3734 2.75L13.4182 4.59113C13.5167 4.67986 13.576 4.80412 13.5829 4.93655C13.5898 5.06898 13.5439 5.19874 13.4551 5.29728C13.3664 5.39583 13.2421 5.45508 13.1097 5.46202C12.9773 5.46895 12.8475 5.42299 12.749 5.33425L10.7042 3.49312C10.6057 3.40439 10.5464 3.28015 10.5395 3.14773C10.5325 3.0153 10.5785 2.88555 10.6672 2.787ZM22.4147 8.28644L24.4793 9.94594L23.7844 12.5021C23.7064 12.7891 23.8115 13.0876 24.0523 13.2627C24.293 13.4375 24.6092 13.4451 24.8583 13.2823L27.0746 11.8315L29.291 13.2824C29.4065 13.3585 29.5417 13.3992 29.6801 13.3994C29.83 13.3992 29.9759 13.3513 30.0968 13.2627C30.3377 13.0879 30.4428 12.7894 30.3647 12.5021L29.6698 9.946L31.7343 8.28656C31.9663 8.10025 32.0568 7.79694 31.9648 7.51381C31.8729 7.23069 31.6214 7.0385 31.3243 7.02413L28.6785 6.89512L27.7383 4.41875C27.6327 4.14056 27.3722 3.96075 27.0746 3.96075C26.777 3.96075 26.5164 4.1405 26.4108 4.41869L25.4707 6.89512L22.825 7.02406C22.5277 7.03844 22.2762 7.23069 22.1842 7.51381C22.0922 7.79688 22.1827 8.10019 22.4147 8.28644ZM25.7089 7.88469C25.8469 7.87799 25.9799 7.83117 26.0917 7.74997C26.2034 7.66877 26.2891 7.55672 26.3381 7.42756L27.0745 5.48787L27.8109 7.4275C27.8599 7.55666 27.9455 7.6687 28.0573 7.74991C28.169 7.83111 28.3021 7.87793 28.44 7.88462L30.5123 7.98569L28.8953 9.28537C28.7876 9.37187 28.7074 9.48793 28.6647 9.61932C28.622 9.7507 28.6186 9.89169 28.6548 10.025L29.1992 12.0271L27.4632 10.8907C27.3476 10.815 27.2125 10.7747 27.0744 10.7747C26.9362 10.7747 26.8011 10.8151 26.6856 10.8907L24.9497 12.0271L25.494 10.0251C25.5303 9.89183 25.5269 9.75085 25.4842 9.61948C25.4415 9.4881 25.3614 9.37203 25.2537 9.2855L23.6365 7.98569L25.7089 7.88469ZM0.265652 8.28644L2.33034 9.94594L1.6354 12.5021C1.5574 12.7891 1.66246 13.0876 1.90328 13.2627C2.14415 13.4375 2.46034 13.4452 2.70928 13.2823L4.92559 11.8315L7.14197 13.2824C7.25748 13.3585 7.39274 13.3992 7.53109 13.3994C7.68099 13.3992 7.82693 13.3513 7.94784 13.2627C8.18865 13.0879 8.29378 12.7894 8.21572 12.5021L7.52078 9.946L9.58534 8.28656C9.81722 8.10038 9.90778 7.79713 9.81584 7.5135C9.72371 7.23056 9.47222 7.03844 9.17528 7.02406L6.52947 6.89506L5.58928 4.41875C5.48372 4.14056 5.22315 3.96075 4.92559 3.96075C4.62796 3.96075 4.3674 4.1405 4.26184 4.41869L3.32165 6.89512L0.676027 7.02406C0.378715 7.03844 0.127215 7.23069 0.0353399 7.5135C-0.0568476 7.79669 0.0335899 8.10012 0.265652 8.28644ZM3.5599 7.88469C3.69789 7.87799 3.83092 7.83117 3.94268 7.74997C4.05444 7.66877 4.14008 7.55672 4.18909 7.42756L4.92553 5.48787L5.6619 7.4275C5.7109 7.55666 5.79653 7.6687 5.90828 7.74991C6.02003 7.83111 6.15305 7.87793 6.29103 7.88462L8.36334 7.98569L6.74628 9.28537C6.63856 9.37187 6.55842 9.48793 6.51571 9.61932C6.473 9.7507 6.46957 9.89169 6.50584 10.025L7.05015 12.0271L5.31415 10.8907C5.1986 10.815 5.06348 10.7747 4.92536 10.7747C4.78724 10.7747 4.65213 10.8151 4.53659 10.8907L2.80071 12.0271L3.34503 10.0251C3.38128 9.89183 3.37785 9.75085 3.33517 9.61948C3.29248 9.4881 3.21239 9.37203 3.10471 9.2855L1.48753 7.98569L3.5599 7.88469ZM31.9213 26.5583C31.5695 25.4222 30.849 24.4021 29.8923 23.6857C29.4405 23.347 28.9407 23.0776 28.4094 22.8865C29.1388 22.314 29.6088 21.4253 29.6088 20.4282C29.6088 18.7053 28.2072 17.3037 26.4843 17.3037C24.7615 17.3037 23.3598 18.7053 23.3598 20.4282C23.3598 21.4241 23.8287 22.3119 24.5567 22.8845C23.581 23.2327 22.7166 23.8446 22.0547 24.6691C21.7428 24.2328 21.385 23.8313 20.9872 23.4715C20.1872 22.7474 19.2389 22.2064 18.2085 21.8862C19.2919 21.168 20.0082 19.9382 20.0082 18.5438C20.0082 16.3338 18.2101 14.5358 16.0001 14.5358C13.7901 14.5358 11.992 16.3338 11.992 18.5438C11.992 19.9382 12.7082 21.168 13.7917 21.8862C12.7611 22.2064 11.8128 22.7473 11.0128 23.4715C10.6151 23.8312 10.2573 24.2327 9.94547 24.6691C9.28359 23.8445 8.41922 23.2326 7.44347 22.8843C8.1714 22.3117 8.64034 21.4239 8.64034 20.428C8.64034 18.7051 7.23865 17.3035 5.51584 17.3035C3.79296 17.3035 2.39128 18.7051 2.39128 20.428C2.39128 21.425 2.86128 22.3138 3.59065 22.8863C3.05932 23.0774 2.55949 23.3468 2.10771 23.6855C1.15103 24.4018 0.430465 25.422 0.0786524 26.5581C-0.0839101 27.0828 0.00615242 27.6154 0.332215 28.0578C0.658215 28.5 1.14034 28.7435 1.68971 28.7435H8.60178V29.6459C8.60178 30.944 9.65784 32.0001 10.956 32.0001H21.0441C22.3422 32.0001 23.3983 30.944 23.3983 29.6459V28.7437H30.3103C30.8598 28.7437 31.3419 28.5002 31.6678 28.058C31.9938 27.6156 32.0839 27.083 31.9213 26.5583ZM26.4843 18.3037C27.6558 18.3037 28.6088 19.2568 28.6088 20.4282C28.6088 21.5997 27.6558 22.5527 26.4843 22.5527C25.3128 22.5527 24.3598 21.5997 24.3598 20.4282C24.3598 19.2568 25.3128 18.3037 26.4843 18.3037ZM12.992 18.5438C12.992 16.8851 14.3415 15.5358 16.0001 15.5358C17.6587 15.5358 19.0082 16.8851 19.0082 18.5438C19.0082 20.2019 17.6596 21.5509 16.0017 21.5518H15.9984C14.3405 21.5508 12.992 20.2018 12.992 18.5438ZM5.51584 18.3034C6.68728 18.3034 7.64034 19.2565 7.64034 20.4279C7.64034 21.5994 6.68728 22.5525 5.51584 22.5525C4.34434 22.5525 3.39128 21.5994 3.39128 20.4279C3.39128 19.2565 4.34434 18.3034 5.51584 18.3034ZM8.66672 27.7434H1.68978C1.45965 27.7434 1.27378 27.6496 1.13721 27.4643C1.00059 27.2791 0.965902 27.0737 1.03396 26.8539C1.64546 24.8792 3.44665 23.5525 5.51584 23.5525C7.08103 23.5525 8.50684 24.3088 9.38378 25.5889C9.03532 26.2659 8.79346 26.9927 8.66672 27.7434ZM22.3983 29.6458C22.3983 30.3925 21.7908 31 21.0441 31H10.956C10.2093 31 9.60178 30.3925 9.60178 29.6458V28.2706C9.96378 25.0089 12.709 22.5526 15.9984 22.5518L16.0001 22.5518L16.0017 22.5518C19.291 22.5526 22.0362 25.0089 22.3983 28.2706V29.6458ZM30.8629 27.4646C30.7263 27.6498 30.5405 27.7437 30.3103 27.7437H23.3335C23.2067 26.9929 22.9648 26.2661 22.6164 25.5891C23.4934 24.3089 24.9192 23.5527 26.4843 23.5527C28.5535 23.5527 30.3547 24.8795 30.9662 26.8542C31.0342 27.0739 30.9995 27.2792 30.8629 27.4646Z" fill="white"/>
</g>
<defs>
<clipPath id="clip0_1_139">
<rect width="32" height="32" fill="white"/>
</clipPath>
</defs>
</svg>
