<svg width="32" height="32" viewBox="0 0 32 32" fill="none" xmlns="http://www.w3.org/2000/svg">
<rect width="32" height="32" fill="#1E1E1E"/>
<g id="dashboard" clip-path="url(#clip0_0_1)">
<rect width="1440" height="1024" transform="translate(-24 -516)" fill="#F8F8F8"/>
<g id="Group 28">
<path id="Rectangle 1" d="M-24 -516H224C241.673 -516 256 -501.673 256 -484V476C256 493.673 241.673 508 224 508H-24V-516Z" fill="#040D5F"/>
<g id="Group 9">
<g id="Frame" clip-path="url(#clip1_0_1)">
<g id="Group">
<path id="Vector" d="M31.5 16C31.5 19.0656 30.5909 22.0623 28.8877 24.6112C27.1845 27.1601 24.7638 29.1467 21.9316 30.3198C19.0994 31.493 15.9829 31.7999 12.9762 31.2019C9.96954 30.6038 7.20773 29.1277 5.04002 26.96C2.47929 24.399 0.896017 21.0222 0.564939 17.4158C0.23386 13.8093 1.17588 10.2007 3.22752 7.21625C3.26416 7.16074 3.3115 7.1131 3.36678 7.07611C3.42206 7.03913 3.48417 7.01354 3.54946 7.00086C3.61475 6.98817 3.68191 6.98864 3.74702 7.00224C3.81213 7.01583 3.87387 7.04228 3.92863 7.08003C3.98339 7.11779 4.03006 7.16608 4.06592 7.2221C4.10178 7.27812 4.12611 7.34073 4.13747 7.40626C4.14883 7.4718 4.14701 7.53894 4.1321 7.60376C4.11719 7.66858 4.0895 7.72977 4.05064 7.78375C2.00185 10.7637 1.14047 14.4017 1.63548 17.984C2.1305 21.5663 3.94618 24.8343 6.72633 27.147C9.50648 29.4597 13.0505 30.6502 16.663 30.4848C20.2755 30.3194 23.6959 28.8102 26.2531 26.2531C28.7987 23.7068 30.3059 20.3045 30.4816 16.7083C30.6572 13.1121 29.4887 9.57911 27.2034 6.79685C24.9181 4.01458 21.6794 2.182 18.1176 1.65569C14.5557 1.12937 10.9255 1.94696 7.93314 3.94938L8.72439 4.89063L5.28814 5.5L6.47814 2.21938L7.28627 3.18063C9.61636 1.59697 12.334 0.678312 15.1471 0.523395C17.9601 0.368478 20.7622 0.983166 23.2521 2.30138C25.742 3.6196 27.8255 5.59149 29.2788 8.00508C30.732 10.4187 31.4999 13.1827 31.5 16Z" fill="white"/>
<path id="Vector_2" d="M16 28.5C22.8925 28.5 28.5 22.8925 28.5 16C28.5 9.1075 22.8925 3.5 16 3.5C9.1075 3.5 3.5 9.1075 3.5 16C3.5 22.8925 9.1075 28.5 16 28.5ZM16 4.5C22.3411 4.5 27.5 9.65887 27.5 16C27.5 22.3411 22.3411 27.5 16 27.5C9.65887 27.5 4.5 22.3411 4.5 16C4.5 9.65887 9.65887 4.5 16 4.5Z" fill="white"/>
<path id="Vector_3" d="M16 6.5C16.1326 6.5 16.2598 6.44732 16.3536 6.35355C16.4473 6.25979 16.5 6.13261 16.5 6V5.5C16.5 5.36739 16.4473 5.24021 16.3536 5.14645C16.2598 5.05268 16.1326 5 16 5C15.8674 5 15.7402 5.05268 15.6464 5.14645C15.5527 5.24021 15.5 5.36739 15.5 5.5V6C15.5 6.13261 15.5527 6.25979 15.6464 6.35355C15.7402 6.44732 15.8674 6.5 16 6.5ZM16 25.5C15.8674 25.5 15.7402 25.5527 15.6464 25.6464C15.5527 25.7402 15.5 25.8674 15.5 26V26.5C15.5 26.6326 15.5527 26.7598 15.6464 26.8536C15.7402 26.9473 15.8674 27 16 27C16.1326 27 16.2598 26.9473 16.3536 26.8536C16.4473 26.7598 16.5 26.6326 16.5 26.5V26C16.5 25.8674 16.4473 25.7402 16.3536 25.6464C16.2598 25.5527 16.1326 25.5 16 25.5ZM26 16.5H26.5C26.6326 16.5 26.7598 16.4473 26.8536 16.3536C26.9473 16.2598 27 16.1326 27 16C27 15.8674 26.9473 15.7402 26.8536 15.6464C26.7598 15.5527 26.6326 15.5 26.5 15.5H26C25.8674 15.5 25.7402 15.5527 25.6464 15.6464C25.5527 15.7402 25.5 15.8674 25.5 16C25.5 16.1326 25.5527 16.2598 25.6464 16.3536C25.7402 16.4473 25.8674 16.5 26 16.5ZM5.5 16.5H6C6.13261 16.5 6.25979 16.4473 6.35355 16.3536C6.44732 16.2598 6.5 16.1326 6.5 16C6.5 15.8674 6.44732 15.7402 6.35355 15.6464C6.25979 15.5527 6.13261 15.5 6 15.5H5.5C5.36739 15.5 5.24021 15.5527 5.14645 15.6464C5.05268 15.7402 5 15.8674 5 16C5 16.1326 5.05268 16.2598 5.14645 16.3536C5.24021 16.4473 5.36739 16.5 5.5 16.5ZM23.0711 9.42894C23.1367 9.42902 23.2018 9.41613 23.2624 9.391C23.3231 9.36586 23.3782 9.32899 23.4246 9.2825L23.7781 8.92894C23.8254 8.88271 23.8631 8.82755 23.8889 8.76667C23.9147 8.70579 23.9282 8.64039 23.9286 8.57426C23.9289 8.50813 23.9162 8.44258 23.8911 8.38141C23.8659 8.32024 23.8289 8.26466 23.7822 8.2179C23.7354 8.17113 23.6798 8.1341 23.6187 8.10896C23.5575 8.08382 23.492 8.07106 23.4258 8.07143C23.3597 8.07179 23.2943 8.08527 23.2334 8.11108C23.1725 8.1369 23.1174 8.17453 23.0711 8.22181L22.7175 8.57537C22.6476 8.6453 22.5999 8.73439 22.5807 8.83139C22.5614 8.92838 22.5713 9.02892 22.6091 9.12028C22.647 9.21165 22.711 9.28974 22.7933 9.34468C22.8755 9.39962 22.9722 9.42894 23.0711 9.42894ZM8.57537 23.9246C8.64105 23.9247 8.7061 23.9118 8.76677 23.8867C8.82745 23.8616 8.88256 23.8247 8.92894 23.7782L9.28256 23.4246C9.329 23.3782 9.36583 23.3231 9.39096 23.2624C9.41609 23.2017 9.42903 23.1367 9.42903 23.071C9.42903 23.0054 9.41609 22.9403 9.39096 22.8797C9.36583 22.819 9.329 22.7639 9.28256 22.7174C9.23613 22.671 9.181 22.6342 9.12033 22.609C9.05966 22.5839 8.99464 22.571 8.92897 22.571C8.8633 22.571 8.79827 22.5839 8.73761 22.609C8.67694 22.6342 8.62181 22.671 8.57537 22.7174L8.22181 23.0711C8.15188 23.141 8.10426 23.2301 8.08496 23.3271C8.06567 23.4241 8.07557 23.5246 8.11342 23.616C8.15126 23.7073 8.21535 23.7854 8.29758 23.8404C8.37981 23.8953 8.47648 23.9246 8.57537 23.9246ZM23.4246 22.7174C23.3782 22.671 23.3231 22.6342 23.2624 22.609C23.2017 22.5839 23.1367 22.571 23.071 22.571C23.0054 22.571 22.9403 22.5839 22.8797 22.609C22.819 22.6342 22.7639 22.671 22.7174 22.7174C22.671 22.7639 22.6342 22.819 22.609 22.8797C22.5839 22.9403 22.571 23.0054 22.571 23.071C22.571 23.1367 22.5839 23.2017 22.609 23.2624C22.6342 23.3231 22.671 23.3782 22.7174 23.4246L23.0711 23.7782C23.1648 23.872 23.292 23.9246 23.4246 23.9246C23.5572 23.9246 23.6844 23.872 23.7782 23.7782C23.872 23.6844 23.9246 23.5572 23.9246 23.4246C23.9246 23.292 23.872 23.1648 23.7782 23.0711L23.4246 22.7174ZM8.57544 9.2825C8.62177 9.32939 8.67691 9.36666 8.73769 9.39216C8.79848 9.41765 8.8637 9.43088 8.92962 9.43108C8.99554 9.43128 9.06084 9.41844 9.12178 9.3933C9.18271 9.36817 9.23808 9.33123 9.28468 9.28462C9.33129 9.23801 9.36822 9.18264 9.39335 9.1217C9.41848 9.06077 9.43132 8.99546 9.43111 8.92954C9.43091 8.86363 9.41768 8.7984 9.39217 8.73762C9.36667 8.67684 9.32939 8.6217 9.2825 8.57537L8.92887 8.22181C8.88263 8.17453 8.82747 8.1369 8.76659 8.11108C8.7057 8.08527 8.6403 8.07179 8.57417 8.07143C8.50804 8.07106 8.44249 8.08382 8.38133 8.10896C8.32016 8.1341 8.26459 8.17113 8.21783 8.2179C8.17108 8.26466 8.13406 8.32024 8.10893 8.38141C8.0838 8.44258 8.07105 8.50813 8.07143 8.57426C8.0718 8.64039 8.08529 8.70579 8.11112 8.76667C8.13694 8.82755 8.17459 8.88271 8.22188 8.92894L8.57544 9.2825ZM8.61606 17.6339L12.8964 21.9142C12.9429 21.9607 12.998 21.9975 13.0587 22.0226C13.1193 22.0478 13.1843 22.0607 13.25 22.0607C13.3157 22.0607 13.3807 22.0478 13.4413 22.0226C13.502 21.9975 13.5571 21.9607 13.6036 21.9142L23.3839 12.1339C23.4304 12.0875 23.4672 12.0324 23.4924 11.9717C23.5175 11.911 23.5304 11.846 23.5304 11.7803C23.5304 11.7147 23.5175 11.6496 23.4924 11.589C23.4672 11.5283 23.4304 11.4732 23.3839 11.4268L22.3232 10.3661C22.2768 10.3196 22.2217 10.2828 22.161 10.2576C22.1004 10.2325 22.0353 10.2196 21.9697 10.2196C21.904 10.2196 21.839 10.2325 21.7783 10.2576C21.7176 10.2828 21.6625 10.3196 21.6161 10.3661L13.25 18.7323L10.3839 15.8661C10.3375 15.8196 10.2824 15.7828 10.2217 15.7576C10.161 15.7325 10.096 15.7196 10.0303 15.7196C9.96467 15.7196 9.89965 15.7325 9.83898 15.7576C9.77831 15.7828 9.72318 15.8196 9.67675 15.8661L8.61606 16.9268C8.56962 16.9732 8.53278 17.0283 8.50765 17.089C8.48251 17.1496 8.46958 17.2147 8.46958 17.2803C8.46958 17.346 8.48251 17.411 8.50765 17.4717C8.53278 17.5324 8.56962 17.5875 8.61606 17.6339ZM10.0303 16.9268L12.8964 19.7929C12.9429 19.8394 12.998 19.8762 13.0587 19.9013C13.1193 19.9265 13.1843 19.9394 13.25 19.9394C13.3157 19.9394 13.3807 19.9265 13.4413 19.9013C13.502 19.8762 13.5571 19.8394 13.6036 19.7929L21.9697 11.4268L22.3232 11.7803L13.25 20.8536L9.67675 17.2803L10.0303 16.9268Z" fill="white"/>
</g>
</g>
</g>
</g>
</g>
<defs>
<clipPath id="clip0_0_1">
<rect width="1440" height="1024" fill="white" transform="translate(-24 -516)"/>
</clipPath>
<clipPath id="clip1_0_1">
<rect width="32" height="32" fill="white"/>
</clipPath>
</defs>
</svg>
