<svg width="32" height="32" viewBox="0 0 32 32" fill="none" xmlns="http://www.w3.org/2000/svg">
<path d="M28.6666 2.66667H3.33331C2.80304 2.6672 2.29464 2.87808 1.91968 3.25304C1.54473 3.628 1.33384 4.1364 1.33331 4.66667V13.3333C1.33331 13.5101 1.40355 13.6797 1.52858 13.8047C1.6536 13.9298 1.82317 14 1.99998 14C2.17679 14 2.34636 13.9298 2.47138 13.8047C2.59641 13.6797 2.66665 13.5101 2.66665 13.3333V4.66667C2.66682 4.48992 2.73712 4.32045 2.8621 4.19546C2.98709 4.07048 3.15656 4.00018 3.33331 4.00001H28.6666C28.8434 4.00018 29.0129 4.07048 29.1379 4.19546C29.2628 4.32045 29.3331 4.48992 29.3333 4.66667V27.3333C29.3331 27.5101 29.2628 27.6796 29.1379 27.8045C29.0129 27.9295 28.8434 27.9998 28.6666 28H27.3333C27.1565 28 26.9869 28.0702 26.8619 28.1953C26.7369 28.3203 26.6666 28.4899 26.6666 28.6667C26.6666 28.8435 26.7369 29.0131 26.8619 29.1381C26.9869 29.2631 27.1565 29.3333 27.3333 29.3333H28.6666C29.1969 29.3328 29.7053 29.1219 30.0803 28.747C30.4552 28.372 30.6661 27.8636 30.6666 27.3333V4.66667C30.6661 4.1364 30.4552 3.628 30.0803 3.25304C29.7053 2.87808 29.1969 2.6672 28.6666 2.66667Z" fill="white"/>
<path d="M24.6666 28H3.33331C3.15656 27.9998 2.98709 27.9295 2.8621 27.8046C2.73712 27.6796 2.66682 27.5101 2.66665 27.3333V16C2.66665 15.8232 2.59641 15.6536 2.47138 15.5286C2.34636 15.4036 2.17679 15.3333 1.99998 15.3333C1.82317 15.3333 1.6536 15.4036 1.52858 15.5286C1.40355 15.6536 1.33331 15.8232 1.33331 16V27.3333C1.33384 27.8636 1.54473 28.372 1.91968 28.747C2.29464 29.1219 2.80304 29.3328 3.33331 29.3333H24.6666C24.8435 29.3333 25.013 29.2631 25.1381 29.1381C25.2631 29.0131 25.3333 28.8435 25.3333 28.6667C25.3333 28.4899 25.2631 28.3203 25.1381 28.1953C25.013 28.0702 24.8435 28 24.6666 28Z" fill="white"/>
<path d="M24.6667 16H22C21.6465 16.0004 21.3076 16.141 21.0576 16.3909C20.8076 16.6409 20.667 16.9798 20.6667 17.3333V25.3333H18.6667V23.3333C18.6667 23.1565 18.5964 22.987 18.4714 22.8619C18.3464 22.7369 18.1768 22.6667 18 22.6667C17.8232 22.6667 17.6536 22.7369 17.5286 22.8619C17.4036 22.987 17.3333 23.1565 17.3333 23.3333V25.3333H14.6667V20H17.3333V20.6667C17.3333 20.8435 17.4036 21.0131 17.5286 21.1381C17.6536 21.2631 17.8232 21.3333 18 21.3333C18.1768 21.3333 18.3464 21.2631 18.4714 21.1381C18.5964 21.0131 18.6667 20.8435 18.6667 20.6667V20C18.6663 19.6465 18.5257 19.3076 18.2758 19.0576C18.0258 18.8076 17.6868 18.667 17.3333 18.6667H14.6667C14.3132 18.667 13.9742 18.8076 13.7242 19.0576C13.4743 19.3076 13.3337 19.6465 13.3333 20V25.3333H11.3333C11.3333 25.1565 11.2631 24.987 11.1381 24.8619C11.013 24.7369 10.8435 24.6667 10.6667 24.6667C10.4899 24.6667 10.3203 24.7369 10.1953 24.8619C10.0702 24.987 10 25.1565 10 25.3333H7.33333V22.6667L10 22.666C10 22.8428 10.0702 23.0131 10.1953 23.1381C10.3203 23.2631 10.4899 23.3333 10.6667 23.3333C10.8435 23.3333 11.013 23.2631 11.1381 23.1381C11.2631 23.0131 11.3333 22.8435 11.3333 22.6667C11.333 22.3132 11.1924 21.9742 10.9424 21.7243C10.6924 21.4743 10.3535 21.3337 10 21.3333H7.33333C6.97982 21.3337 6.64089 21.4743 6.39091 21.7243C6.14094 21.9742 6.00035 22.3132 6 22.6667V25.3333C6.00035 25.6869 6.14094 26.0258 6.39091 26.2758C6.64089 26.5257 6.97982 26.6663 7.33333 26.6667H24.6667C25.0202 26.6663 25.3591 26.5257 25.6091 26.2758C25.8591 26.0258 25.9996 25.6869 26 25.3333V20.6667C26 20.4899 25.9298 20.3203 25.8047 20.1953C25.6797 20.0703 25.5101 20 25.3333 20C25.1565 20 24.987 20.0703 24.8619 20.1953C24.7369 20.3203 24.6667 20.4899 24.6667 20.6667V25.3333H22V17.3333H24.6667V18C24.6667 18.1768 24.7369 18.3464 24.8619 18.4714C24.987 18.5964 25.1565 18.6667 25.3333 18.6667C25.5101 18.6667 25.6797 18.5964 25.8047 18.4714C25.9298 18.3464 26 18.1768 26 18V17.3333C25.9996 16.9798 25.8591 16.6409 25.6091 16.3909C25.3591 16.141 25.0202 16.0004 24.6667 16ZM16 10.6667C15.717 10.6654 15.4409 10.7542 15.2118 10.9202C14.9826 11.0863 14.8122 11.3209 14.7252 11.5902C14.6382 11.8595 14.6392 12.1495 14.7279 12.4182C14.8167 12.6869 14.9887 12.9204 15.219 13.0849C15.4492 13.2494 15.7259 13.3364 16.0089 13.3332C16.2918 13.3301 16.5665 13.237 16.793 13.0674C17.0196 12.8978 17.1863 12.6605 17.269 12.3899C17.3518 12.1192 17.3463 11.8293 17.2533 11.562L19.756 8.64201C19.9904 8.68784 20.233 8.66682 20.456 8.58135L22.6893 10.4427C22.6534 10.6496 22.667 10.8621 22.729 11.0628C22.7911 11.2635 22.8997 11.4466 23.0461 11.5972C23.1925 11.7478 23.3725 11.8616 23.5714 11.9292C23.7702 11.9969 23.9823 12.0165 24.1901 11.9864C24.398 11.9563 24.5958 11.8775 24.7673 11.7562C24.9389 11.635 25.0792 11.4749 25.177 11.289C25.2747 11.1031 25.327 10.8967 25.3296 10.6866C25.3323 10.4766 25.2851 10.269 25.192 10.0807L26.5847 7.99201C26.8768 8.01043 27.1669 7.93197 27.41 7.7688C27.6531 7.60563 27.8356 7.36685 27.9292 7.08946C28.0228 6.81208 28.0223 6.51156 27.9278 6.23447C27.8333 5.95738 27.6501 5.71919 27.4065 5.5568C27.1629 5.39441 26.8725 5.31688 26.5804 5.33622C26.2883 5.35557 26.0107 5.47071 25.7907 5.66381C25.5706 5.8569 25.4204 6.11718 25.3633 6.40431C25.3061 6.69144 25.3453 6.98939 25.4747 7.25201L24.082 9.34135C23.8991 9.32413 23.7147 9.35063 23.544 9.41868L21.3107 7.55801C21.3436 7.35889 21.3307 7.15488 21.2729 6.96151C21.215 6.76814 21.1139 6.59051 20.977 6.44214C20.8402 6.29378 20.6713 6.17858 20.4833 6.10533C20.2952 6.03208 20.0929 6.00271 19.8918 6.01944C19.6906 6.03618 19.496 6.09858 19.3226 6.2019C19.1492 6.30523 19.0017 6.44674 18.8913 6.61568C18.7809 6.78462 18.7104 6.97653 18.6854 7.1768C18.6603 7.37706 18.6813 7.5804 18.7467 7.77135L16.244 10.6913C16.1636 10.6756 16.0819 10.6674 16 10.6667ZM4.66667 6.66668H6C6.17681 6.66668 6.34638 6.59644 6.4714 6.47142C6.59643 6.34639 6.66667 6.17682 6.66667 6.00001C6.66667 5.8232 6.59643 5.65363 6.4714 5.52861C6.34638 5.40358 6.17681 5.33335 6 5.33335H4.66667C4.48986 5.33335 4.32029 5.40358 4.19526 5.52861C4.07024 5.65363 4 5.8232 4 6.00001C4 6.17682 4.07024 6.34639 4.19526 6.47142C4.32029 6.59644 4.48986 6.66668 4.66667 6.66668ZM8.66667 6.66668H13.3333C13.5101 6.66668 13.6797 6.59644 13.8047 6.47142C13.9298 6.34639 14 6.17682 14 6.00001C14 5.8232 13.9298 5.65363 13.8047 5.52861C13.6797 5.40358 13.5101 5.33335 13.3333 5.33335H8.66667C8.48986 5.33335 8.32029 5.40358 8.19526 5.52861C8.07024 5.65363 8 5.8232 8 6.00001C8 6.17682 8.07024 6.34639 8.19526 6.47142C8.32029 6.59644 8.48986 6.66668 8.66667 6.66668ZM4.66667 9.33335H6C6.17681 9.33335 6.34638 9.26311 6.4714 9.13808C6.59643 9.01306 6.66667 8.84349 6.66667 8.66668C6.66667 8.48987 6.59643 8.3203 6.4714 8.19528C6.34638 8.07025 6.17681 8.00001 6 8.00001H4.66667C4.48986 8.00001 4.32029 8.07025 4.19526 8.19528C4.07024 8.3203 4 8.48987 4 8.66668C4 8.84349 4.07024 9.01306 4.19526 9.13808C4.32029 9.26311 4.48986 9.33335 4.66667 9.33335ZM8.66667 9.33335H13.3333C13.5101 9.33335 13.6797 9.26311 13.8047 9.13808C13.9298 9.01306 14 8.84349 14 8.66668C14 8.48987 13.9298 8.3203 13.8047 8.19528C13.6797 8.07025 13.5101 8.00001 13.3333 8.00001H8.66667C8.48986 8.00001 8.32029 8.07025 8.19526 8.19528C8.07024 8.3203 8 8.48987 8 8.66668C8 8.84349 8.07024 9.01306 8.19526 9.13808C8.32029 9.26311 8.48986 9.33335 8.66667 9.33335ZM4.66667 12H6C6.17681 12 6.34638 11.9298 6.4714 11.8048C6.59643 11.6797 6.66667 11.5102 6.66667 11.3333C6.66667 11.1565 6.59643 10.987 6.4714 10.8619C6.34638 10.7369 6.17681 10.6667 6 10.6667H4.66667C4.48986 10.6667 4.32029 10.7369 4.19526 10.8619C4.07024 10.987 4 11.1565 4 11.3333C4 11.5102 4.07024 11.6797 4.19526 11.8048C4.32029 11.9298 4.48986 12 4.66667 12ZM8.66667 12H11.3333C11.5101 12 11.6797 11.9298 11.8047 11.8048C11.9298 11.6797 12 11.5102 12 11.3333C12 11.1565 11.9298 10.987 11.8047 10.8619C11.6797 10.7369 11.5101 10.6667 11.3333 10.6667H8.66667C8.48986 10.6667 8.32029 10.7369 8.19526 10.8619C8.07024 10.987 8 11.1565 8 11.3333C8 11.5102 8.07024 11.6797 8.19526 11.8048C8.32029 11.9298 8.48986 12 8.66667 12Z" fill="white"/>
</svg>
