<svg width="32" height="32" viewBox="0 0 32 32" fill="none" xmlns="http://www.w3.org/2000/svg">
<path d="M5.33331 6.66665C5.33331 6.31302 5.47379 5.97389 5.72384 5.72384C5.97389 5.47379 6.31302 5.33331 6.66665 5.33331H12C12.3536 5.33331 12.6927 5.47379 12.9428 5.72384C13.1928 5.97389 13.3333 6.31302 13.3333 6.66665V13.3333C13.3333 13.6869 13.1928 14.0261 12.9428 14.2761C12.6927 14.5262 12.3536 14.6666 12 14.6666H6.66665C6.31302 14.6666 5.97389 14.5262 5.72384 14.2761C5.47379 14.0261 5.33331 13.6869 5.33331 13.3333V6.66665ZM18.6666 6.66665C18.6666 6.31302 18.8071 5.97389 19.0572 5.72384C19.3072 5.47379 19.6464 5.33331 20 5.33331H25.3333C25.6869 5.33331 26.0261 5.47379 26.2761 5.72384C26.5262 5.97389 26.6666 6.31302 26.6666 6.66665V9.33331C26.6666 9.68694 26.5262 10.0261 26.2761 10.2761C26.0261 10.5262 25.6869 10.6666 25.3333 10.6666H20C19.6464 10.6666 19.3072 10.5262 19.0572 10.2761C18.8071 10.0261 18.6666 9.68694 18.6666 9.33331V6.66665ZM5.33331 21.3333C5.33331 20.9797 5.47379 20.6406 5.72384 20.3905C5.97389 20.1405 6.31302 20 6.66665 20H12C12.3536 20 12.6927 20.1405 12.9428 20.3905C13.1928 20.6406 13.3333 20.9797 13.3333 21.3333V25.3333C13.3333 25.6869 13.1928 26.0261 12.9428 26.2761C12.6927 26.5262 12.3536 26.6666 12 26.6666H6.66665C6.31302 26.6666 5.97389 26.5262 5.72384 26.2761C5.47379 26.0261 5.33331 25.6869 5.33331 25.3333V21.3333ZM18.6666 17.3333C18.6666 16.9797 18.8071 16.6406 19.0572 16.3905C19.3072 16.1405 19.6464 16 20 16H25.3333C25.6869 16 26.0261 16.1405 26.2761 16.3905C26.5262 16.6406 26.6666 16.9797 26.6666 17.3333V25.3333C26.6666 25.6869 26.5262 26.0261 26.2761 26.2761C26.0261 26.5262 25.6869 26.6666 25.3333 26.6666H20C19.6464 26.6666 19.3072 26.5262 19.0572 26.2761C18.8071 26.0261 18.6666 25.6869 18.6666 25.3333V17.3333Z" stroke="white" stroke-width="1.33333"/>
</svg>
