<svg width="32" height="32" viewBox="0 0 32 32" fill="none" xmlns="http://www.w3.org/2000/svg">
<path d="M16 1.33334L28.0667 8.53334C28.4667 8.77779 28.7778 9.11112 29 9.53334C29.2222 9.95557 29.3334 10.4 29.3334 10.8667V25.3333C29.3334 26.0667 29.072 26.6947 28.5494 27.2173C28.0267 27.74 27.3991 28.0009 26.6667 28H5.33336C4.60002 28 3.97202 27.7387 3.44936 27.216C2.92669 26.6933 2.6658 26.0658 2.66669 25.3333V10.8667C2.66669 10.4 2.7778 9.95557 3.00002 9.53334C3.22224 9.11112 3.53336 8.77779 3.93336 8.53334L16 1.33334ZM16 16.8667L26.4 10.6667L16 4.46668L5.60002 10.6667L16 16.8667Z" fill="white"/>
</svg>
