<svg width="32" height="32" viewBox="0 0 32 32" fill="none" xmlns="http://www.w3.org/2000/svg">
<path d="M16 18.6667V29.3333H5.33331C5.33331 26.5044 6.45712 23.7913 8.45751 21.7909C10.4579 19.7905 13.171 18.6667 16 18.6667ZM16 17.3333C11.58 17.3333 7.99998 13.7533 7.99998 9.33334C7.99998 4.91334 11.58 1.33334 16 1.33334C20.42 1.33334 24 4.91334 24 9.33334C24 13.7533 20.42 17.3333 16 17.3333ZM28 22.6667H29.3333V29.3333H18.6666V22.6667H20V21.3333C20 20.2725 20.4214 19.2551 21.1716 18.5049C21.9217 17.7548 22.9391 17.3333 24 17.3333C25.0608 17.3333 26.0783 17.7548 26.8284 18.5049C27.5786 19.2551 28 20.2725 28 21.3333V22.6667ZM25.3333 22.6667V21.3333C25.3333 20.9797 25.1928 20.6406 24.9428 20.3905C24.6927 20.1405 24.3536 20 24 20C23.6464 20 23.3072 20.1405 23.0572 20.3905C22.8071 20.6406 22.6666 20.9797 22.6666 21.3333V22.6667H25.3333Z" fill="white"/>
</svg>
